# xmcd
#
# Track frame offsets:
#	150
#	9898
#	20068
#	32136
#	41475
#	52349
#	64107
#	73658
#	84453
#	95318
#	109065
#	122958
#	134193
#	146317
#	159099
#	171166
#	187184
#	199132
#	210199
#	211134
#
# Disc length: 2943 seconds
#
# Revision: 1
# Processed by: cddbd v1.5.1PL0 Copyright (c) Steve Scherf et al.
# Submitted via: audiograbber 1.83.01
#
DISCID=1f0b7d14
DTITLE=Lee, Brenda - Anthology Vol. 01 1956-1961 - Lee, Brenda - Anthology Vol.
DTITLE=01 1956-1961
DYEAR=1900
DGENRE=Country
TTITLE0=Jambalaya (On the Bayou)
TTITLE1=Bigelow 6-200
TTITLE2=One Step at a Time
TTITLE3=Dynamite
TTITLE4=Little Jonah (Rock on Your Steel Guitar)
TTITLE5=Let's Jump the Broomstick
TTITLE6=Rockin' Around the Christmas Tree
TTITLE7=Bill Bailey, Won't You Please Come Home
TTITLE8=Sweet Nothin's
TTITLE9=Weep No More My Baby
TTITLE10=I Want to Be Wanted
TTITLE11=That's All You Gotta Do
TTITLE12=I'm Sorry
TTITLE13=Emotions
TTITLE14=If You Love Me (Really Love Me)
TTITLE15=You Can Depend on Me
TTITLE16=Kansas City
TTITLE17=Dum Dum
TTITLE18=Fool Number One
TTITLE19=So Deep
EXTD=
EXTT0=
EXTT1=
EXTT2=
EXTT3=
EXTT4=
EXTT5=
EXTT6=
EXTT7=
EXTT8=
EXTT9=
EXTT10=
EXTT11=
EXTT12=
EXTT13=
EXTT14=
EXTT15=
EXTT16=
EXTT17=
EXTT18=
EXTT19=
PLAYORDER=
